<?xml version="1.0" encoding="UTF-8" standalone="no"?>
<svg
   xmlns:dc="http://purl.org/dc/elements/1.1/"
   xmlns:cc="http://creativecommons.org/ns#"
   xmlns:rdf="http://www.w3.org/1999/02/22-rdf-syntax-ns#"
   xmlns:svg="http://www.w3.org/2000/svg"
   xmlns="http://www.w3.org/2000/svg"
   width="82.712173mm"
   height="18.052561mm"
   viewBox="0 0 82.712173 18.052561"
   version="1.1"
   id="svg8">
  <defs
     id="defs2" />
  <metadata
     id="metadata5">
    <rdf:RDF>
      <cc:Work
         rdf:about="">
        <dc:format>image/svg+xml</dc:format>
        <dc:type
           rdf:resource="http://purl.org/dc/dcmitype/StillImage" />
        <dc:title></dc:title>
      </cc:Work>
    </rdf:RDF>
  </metadata>
  <g
     id="layer1"
     transform="translate(-27.296017,-103.80326)">
    <g
       aria-label="HYPER"
       id="text20"
       style="font-size:17.6389px;line-height:1.65;font-family:sans-serif;letter-spacing:0px;fill:#1186c8;fill-opacity:1;stroke-width:0.264583">
      <path
         d="m 29.606713,109.50857 q 0.388056,0 0.388056,0.38805 v 4.58612 h 8.255005 v -4.58612 q 0,-0.38805 0.388056,-0.38805 h 1.905001 q 0.405695,0 0.405695,0.38805 v 11.57112 q 0,0.38806 -0.405695,0.38806 H 38.63783 q -0.388056,0 -0.388056,-0.38806 v -4.69195 h -8.255005 v 4.69195 q 0,0.38806 -0.388056,0.38806 h -1.905002 q -0.405694,0 -0.405694,-0.38806 v -11.57112 q 0,-0.38805 0.405694,-0.38805 z"
         style="font-style:normal;font-variant:normal;font-weight:600;font-stretch:normal;font-size:17.6389px;font-family:Conthrax;-inkscape-font-specification:'Conthrax, Semi-Bold';font-variant-ligatures:normal;font-variant-caps:normal;font-variant-numeric:normal;font-variant-east-asian:normal;fill:#1186c8;fill-opacity:1;stroke-width:0.264583"
         id="path845" />
      <path
         d="m 44.899609,109.50857 q 0.282222,0 0.423333,0.21166 l 4.709587,6.36765 4.744864,-6.36765 q 0.141111,-0.21166 0.423334,-0.21166 h 2.310696 q 0.141111,0 0.194028,0.12347 0.05292,0.10583 -0.03528,0.2293 l -6.332366,8.21973 v 3.38667 q 0,0.38806 -0.388055,0.38806 h -1.905 q -0.405694,0 -0.405694,-0.38806 v -3.38667 l -6.26181,-8.21973 q -0.08819,-0.12347 -0.05292,-0.2293 0.05292,-0.12347 0.211667,-0.12347 z"
         style="font-style:normal;font-variant:normal;font-weight:600;font-stretch:normal;font-size:17.6389px;font-family:Conthrax;-inkscape-font-specification:'Conthrax, Semi-Bold';font-variant-ligatures:normal;font-variant-caps:normal;font-variant-numeric:normal;font-variant-east-asian:normal;fill:#1186c8;fill-opacity:1;stroke-width:0.264583"
         id="path847" />
      <path
         d="m 69.08254,109.50857 q 2.028474,0 2.910419,0.91722 0.881945,0.91722 0.881945,2.71639 v 1.30528 q 0,1.79917 -0.881945,2.71639 -0.881945,0.91722 -2.910419,0.91722 h -7.302505 v 3.38667 q 0,0.38806 -0.388055,0.38806 h -1.905002 q -0.405694,0 -0.405694,-0.38806 v -11.43001 q 0,-0.52916 0.529167,-0.52916 z m -7.302505,6.24417 h 6.755699 q 0.899584,0 1.270001,-0.38806 0.370417,-0.38805 0.370417,-1.18181 v -0.67027 q 0,-0.79375 -0.370417,-1.18181 -0.370417,-0.38806 -1.270001,-0.38806 h -6.526393 q -0.229306,0 -0.229306,0.21167 z"
         style="font-style:normal;font-variant:normal;font-weight:600;font-stretch:normal;font-size:17.6389px;font-family:Conthrax;-inkscape-font-specification:'Conthrax, Semi-Bold';font-variant-ligatures:normal;font-variant-caps:normal;font-variant-numeric:normal;font-variant-east-asian:normal;fill:#1186c8;fill-opacity:1;stroke-width:0.264583"
         id="path849" />
      <path
         d="m 87.180029,109.50857 q 0.405695,0 0.405695,0.38805 v 1.6757 q 0,0.38805 -0.405695,0.38805 H 79.47183 q -0.687917,0 -1.146529,0.12348 -0.440972,0.10583 -0.723195,0.38805 -0.264583,0.26459 -0.370417,0.74084 -0.105833,0.45861 -0.105833,1.14652 v 0.17639 h 9.965979 q 0.388056,0 0.388056,0.38806 v 1.39347 q 0,0.38806 -0.388056,0.38806 h -9.965979 v 0.29986 q 0,0.68792 0.105833,1.16417 0.105834,0.45861 0.370417,0.74083 0.282223,0.26458 0.723195,0.38806 0.458612,0.10583 1.146529,0.10583 h 7.708199 q 0.405695,0 0.405695,0.38806 v 1.67569 q 0,0.38806 -0.405695,0.38806 h -7.761116 q -1.340557,0 -2.275418,-0.24695 -0.934862,-0.24694 -1.534585,-0.79375 -0.582083,-0.56444 -0.864306,-1.44639 -0.264583,-0.89958 -0.264583,-2.16958 v -3.03389 q 0,-1.27 0.264583,-2.15195 0.282223,-0.88194 0.864306,-1.42875 0.599723,-0.56445 1.534585,-0.81139 0.934861,-0.26458 2.275418,-0.26458 z"
         style="font-style:normal;font-variant:normal;font-weight:600;font-stretch:normal;font-size:17.6389px;font-family:Conthrax;-inkscape-font-specification:'Conthrax, Semi-Bold';font-variant-ligatures:normal;font-variant-caps:normal;font-variant-numeric:normal;font-variant-east-asian:normal;fill:#1186c8;fill-opacity:1;stroke-width:0.264583"
         id="path851" />
      <path
         d="m 99.615427,109.50857 q 2.028473,0 2.910423,0.91722 0.88194,0.91722 0.88194,2.71639 v 1.00542 q 0,1.51694 -0.61736,2.39889 -0.61736,0.88194 -2.01084,1.12889 l 3.01626,3.73944 q 0.0882,0.0882 0.0529,0.26459 -0.0353,0.17639 -0.28222,0.17639 h -2.27542 q -0.2293,0 -0.3175,-0.0529 -0.0882,-0.0529 -0.17639,-0.17639 l -2.786943,-3.66889 h -5.697365 v 3.51014 q 0,0.38806 -0.388056,0.38806 h -1.905001 q -0.405695,0 -0.405695,-0.38806 v -11.43001 q 0,-0.52916 0.529167,-0.52916 z m -7.302505,6.29708 h 6.755699 q 0.899584,0 1.269999,-0.38805 0.37042,-0.38806 0.37042,-1.18181 v -0.74083 q 0,-0.79375 -0.37042,-1.18181 -0.370415,-0.38805 -1.269999,-0.38805 h -6.526393 q -0.229306,0 -0.229306,0.21166 z"
         style="font-style:normal;font-variant:normal;font-weight:600;font-stretch:normal;font-size:17.6389px;font-family:Conthrax;-inkscape-font-specification:'Conthrax, Semi-Bold';font-variant-ligatures:normal;font-variant-caps:normal;font-variant-numeric:normal;font-variant-east-asian:normal;fill:#1186c8;fill-opacity:1;stroke-width:0.264583"
         id="path853" />
    </g>
    <path
       id="circle1124"
       style="fill:none;stroke:#1186c8;stroke-width:0.7249;stroke-miterlimit:4;stroke-dasharray:none;stroke-opacity:1"
       d="m 109.64574,107.37319 c 0,1.77144 -1.43602,3.20746 -3.20746,3.20746 -1.77144,0 -3.20748,-1.43602 -3.20748,-3.20746 0,-1.77144 1.43604,-3.20748 3.20748,-3.20748 1.18939,0 2.22757,0.64739 2.78141,1.60901 0.27102,0.47058 0.42605,1.01642 0.42605,1.59847 z" />
    <path
       d="m 106.24257,107.08325 c 0.19933,0 0.3443,-0.0399 0.43129,-0.11598 0.087,-0.0725 0.13409,-0.19571 0.13409,-0.36968 0,-0.17033 -0.0471,-0.28994 -0.13409,-0.36604 -0.087,-0.0725 -0.23196,-0.10874 -0.43129,-0.10874 h -0.40592 v 0.96044 h 0.40592 m -0.40592,0.66323 v 1.41347 h -0.96406 v -3.73662 h 1.47145 c 0.49291,0 0.85171,0.0834 1.08004,0.25008 0.23195,0.16309 0.3443,0.42404 0.3443,0.78284 0,0.24645 -0.058,0.44941 -0.17759,0.60888 -0.1196,0.15584 -0.29719,0.27544 -0.54001,0.34792 0.13409,0.0327 0.25007,0.10149 0.35517,0.20659 0.10511,0.1051 0.21021,0.26457 0.31532,0.48202 l 0.52551,1.05829 h -1.02567 l -0.45665,-0.92782 c -0.0906,-0.18483 -0.18483,-0.3153 -0.27907,-0.38054 -0.0942,-0.0689 -0.22107,-0.10511 -0.37692,-0.10511 h -0.27182"
       id="path1126"
       style="fill:#1186c8;fill-opacity:1;stroke-width:0.0362426" />
  </g>
</svg>
